<svg width="25" height="27" viewBox="0 0 25 27" fill="none" xmlns="http://www.w3.org/2000/svg">
<path fill-rule="evenodd" clip-rule="evenodd" d="M11.1269 25.2327C12.3086 25.8329 14.32 25.7679 15.2772 25.1424C13.8979 25.0658 12.5816 24.966 11.1269 25.2327ZM24.0276 12.6775C24.1415 16.4931 23.0451 20.3224 20.4812 23.6882C19.4155 25.0869 17.9649 25.963 16.268 26.342C13.3528 26.9927 10.5164 26.7197 7.80211 25.4075C6.22317 24.6446 5.21501 23.3448 4.18406 21.9717C2.26838 19.4198 1.32234 16.4707 0.526664 13.4897C-0.38375 10.0796 0.259505 6.79209 1.8314 3.62055C2.37152 2.53037 2.7414 1.43315 3.86223 0.78037C4.71548 0.283328 5.52939 0.498713 6.34868 0.797352C6.54501 0.869009 6.85069 1.10262 6.83453 1.22605C6.6059 2.97398 8.09536 4.43404 7.64264 6.21676C7.46743 6.90723 7.37175 7.61925 7.26158 8.32463C6.95548 10.2842 8.02205 11.7302 10.0347 11.9489C11.9947 12.1618 13.7144 11.5637 14.9231 9.95948C15.9192 8.63818 16.6337 7.14581 17.0156 5.51676C17.3325 4.16481 18.399 3.43747 19.7775 3.64374C22.0676 3.98629 22.6367 4.60013 22.8828 6.98676C22.8977 7.13504 22.8902 7.32019 22.9747 7.42043C24.1813 8.86475 23.8118 10.6317 24.0276 12.6775Z" fill="black"/>
</svg>
