<svg width="16" height="15" viewBox="0 0 16 15" fill="none" xmlns="http://www.w3.org/2000/svg">
<path fill-rule="evenodd" clip-rule="evenodd" d="M5.07161 5.34097C5.77161 3.75375 6.08889 2.11517 7.32445 0.95789C7.51374 0.780612 7.67859 0.549487 7.90226 0.441381C8.43451 0.184162 9.11049 -0.233353 9.57108 0.163866C9.97037 0.508482 9.90451 1.23665 9.70155 1.82895C9.60339 2.11351 9.23972 2.5041 9.65682 2.7141C10.0097 2.89097 10.2114 2.4341 10.4368 2.19925C10.5668 2.06339 10.6637 1.89481 10.8 1.76765C11.0543 1.53032 11.1774 1.01629 11.6562 1.206C12.0385 1.35677 12.3756 1.63221 12.432 2.1015C12.4842 2.53682 12.4804 2.94191 13.1576 2.647C13.5023 2.49706 13.7437 2.9444 13.9305 3.19706C15.9945 5.98795 16.422 8.87535 13.7392 11.7197C12.9187 12.5891 12.0758 13.4369 11.2445 14.296C10.7876 14.7682 10.2326 14.762 9.67836 14.5652C9.05291 14.3432 9.72723 13.8358 9.44806 13.4295C8.81185 14.4522 8.19966 14.3163 7.38575 13.5786C6.88126 13.1217 6.27652 12.5506 5.32717 12.9329C4.97759 13.0737 4.31238 12.6852 3.90439 12.3849C1.85948 10.8801 0.628474 8.88819 0.580013 6.29611C0.560545 5.26807 0.898119 4.35641 1.93776 3.89333C2.137 3.80469 2.53918 3.7028 2.55451 3.73718C3.03126 4.80955 4.4209 4.38126 5.07161 5.34097Z" fill="black"/>
</svg>
