<svg width="23" height="29" viewBox="0 0 23 29" fill="none" xmlns="http://www.w3.org/2000/svg">
<path fill-rule="evenodd" clip-rule="evenodd" d="M15.25 26.5985C13.995 26.4026 12.7731 26.4916 11.6187 27.0326C12.8659 27.1891 14.1085 27.3283 15.25 26.5985ZM8.32873 1.6292C7.80352 2.08358 7.0737 1.85867 6.76346 2.50938C7.17311 2.82252 7.54961 2.38678 7.90666 2.46423C8.40452 2.57275 9.42595 2.39713 8.61825 3.46411C8.55861 3.54323 8.41944 3.62234 8.58843 3.70559C9.98719 4.39648 8.94009 5.28494 8.72015 6.03672C8.49151 6.82246 8.13985 7.57506 8.12121 8.40802C8.09553 9.57317 8.08393 10.7387 8.09967 11.903C8.11873 13.3325 8.34074 13.5159 9.75772 13.3813C12.2019 13.149 13.9171 11.3874 13.8579 8.9382C13.809 6.93015 14.2079 5.00867 14.6602 3.09216C14.8934 2.10471 15.513 1.31317 16.6103 1.12471C17.9022 0.90228 19.7764 1.69713 20.2577 2.84406C21.0679 4.77423 21.7977 6.76903 22.0848 8.84252C22.651 12.9361 22.5346 17.0193 21.3872 21.032C20.9391 22.599 20.3277 24.1261 19.3813 25.4193C18.1366 27.1196 16.2673 27.8846 14.1822 28.1025C11.5479 28.3775 9.00967 28.2917 6.80737 26.4945C6.32482 26.1006 6.02038 25.5862 5.69192 25.1318C3.52896 22.1384 0.937721 19.3264 0.42494 15.4685C-0.165711 11.0258 0.518549 6.76447 2.80742 2.85068C3.60145 1.49252 4.6879 0.472754 6.44618 0.671156C7.16399 0.752339 7.83251 0.965239 8.32873 1.6292Z" fill="black"/>
</svg>
