<svg width="27" height="29" viewBox="0 0 27 29" fill="none" xmlns="http://www.w3.org/2000/svg">
<path fill-rule="evenodd" clip-rule="evenodd" d="M13.3968 27.477C14.989 27.8506 16.4967 27.617 17.9244 26.7952C16.3575 26.6055 14.8933 27.1593 13.3968 27.477ZM26.0519 12.0322C26.16 17.2272 24.5964 21.0506 22.479 24.6409C20.9949 27.1576 18.571 28.4168 15.6475 28.5659C13.1578 28.6931 10.7061 28.4992 8.33151 27.5963C6.54134 26.9161 5.35465 25.6019 4.36429 24.0851C2.52317 21.2644 0.361039 18.548 0.286897 14.9615C0.193702 10.4831 1.11613 6.2707 4.07394 2.73467C5.32648 1.23774 6.81305 0.232891 8.97228 0.569637C11.1154 0.903897 11.9802 3.51378 11.9641 5.07739C11.9566 5.801 11.3527 6.16549 10.9965 6.59005C9.37406 8.52437 9.04311 10.9454 8.27808 13.2028C8.12027 13.6675 8.44045 13.7955 8.79666 13.873C11.1079 14.375 13.2067 14.2271 14.7786 12.1196C15.6119 11.0029 16.5132 9.94425 17.0641 8.64242C17.3263 8.0236 17.3387 7.45615 17.1084 6.79715C16.8363 6.01597 16.2854 5.05502 17.6585 4.62757C17.9393 4.54017 17.8818 4.30118 17.7504 4.07254C17.1743 3.07265 17.5069 2.09845 18.5921 1.57118C20.7899 0.50295 24.2054 2.45508 24.4174 4.89431C24.4398 5.1507 24.4559 5.44851 24.5922 5.64733C26.1177 7.8691 25.8187 10.4603 26.0519 12.0322Z" fill="black"/>
</svg>
