<svg width="22" height="27" viewBox="0 0 22 27" fill="none" xmlns="http://www.w3.org/2000/svg">
<path fill-rule="evenodd" clip-rule="evenodd" d="M9.56333 25.107C10.3495 25.3004 11.134 25.616 11.8588 25.0308C11.0839 24.9529 10.3097 24.7549 9.56333 25.107ZM7.98026 8.07999C9.66854 8.60561 8.33026 9.59721 8.33647 10.3515C8.33937 10.7218 7.91109 11.1405 8.31576 11.5328C8.71008 11.9147 9.20878 11.8861 9.69091 11.6927C11.8431 10.8299 13.007 9.09188 13.4614 6.9575C13.7948 5.38934 14.344 3.89076 14.6779 2.32756C14.9774 0.925078 16.408 0.182416 17.8192 0.501765C19.505 0.883244 20.5591 1.80318 20.7927 3.57887C21.0703 5.68963 21.6663 7.72792 21.6029 9.91987C21.4563 15.0174 20.0132 19.5956 16.8487 23.6105C13.8967 27.3553 8.2383 27.518 5.19972 23.8167C4.21434 22.616 3.30103 21.2383 3.12251 19.5654C3.0931 19.2895 2.90836 19.0166 2.75262 18.7689C0.156411 14.65 0.424399 10.4016 2.34836 6.17798C3.66552 3.28768 5.92996 3.42727 7.77109 4.80407C8.00138 4.97638 8.31949 5.18182 8.26647 5.51111C8.19854 5.93401 7.77564 5.72401 7.51718 5.81182C7.27156 5.89549 6.9315 5.90626 6.97375 6.25502C7.01724 6.61952 7.3631 6.511 7.61162 6.53709C8.06351 6.58431 8.53819 6.61413 8.71215 7.14679C8.89937 7.72088 8.24783 7.72253 7.98026 8.07999Z" fill="black"/>
</svg>
