<svg width="21" height="25" viewBox="0 0 21 25" fill="none" xmlns="http://www.w3.org/2000/svg">
<path fill-rule="evenodd" clip-rule="evenodd" d="M10.3422 14.6243C9.65795 15.3297 9.45582 15.3977 9.22552 14.9487C8.91363 14.3406 8.0231 14.1335 7.56333 14.5742C7.28126 14.8443 7.28623 15.1963 7.53061 15.4482C7.91043 15.84 10.1335 15.2063 10.3422 14.6243ZM12.1187 23.0703C11.6888 22.6648 10.9805 22.9494 10.7597 22.6714C9.99055 21.7026 9.47363 22.8951 8.82499 22.8201C8.71109 22.8069 8.27535 23.2277 8.40043 23.5205C8.52801 23.8184 9.08221 24.0491 9.24333 23.9111C10.0713 23.2012 11.1963 23.6212 12.1187 23.0703ZM9.71511 18.4955C9.25783 18.4892 8.72517 18.5037 8.65144 19.1284C8.56446 19.8636 9.24168 19.5318 9.57677 19.6917C9.99262 19.8909 10.3621 19.4978 10.7067 19.6175C11.0828 19.7476 11.311 19.6378 11.4473 19.3607C11.6453 18.9581 11.2746 18.6678 11.1089 18.3658C10.9333 18.0473 10.6408 18.2855 10.4292 18.3977C10.2122 18.5133 10.0514 18.7953 9.71511 18.4955ZM18.8532 6.83156C19.441 7.0809 19.9364 7.38741 20.0271 7.98304C20.0975 8.4457 19.5578 8.20836 19.2972 8.51031C20.5423 8.53931 20.2955 9.63363 20.1637 10.088C19.8158 11.285 20.2569 12.4295 20.1169 13.5992C20.0246 14.3679 19.8477 15.1462 19.7839 15.9237C19.7181 16.7301 19.1779 15.6188 18.7588 15.6772C18.5388 15.9171 18.555 16.1689 18.8366 16.3118C19.1258 16.4588 19.639 16.429 19.5984 16.8366C19.5491 17.3316 19.4058 18.0908 19.0831 18.2316C18.2137 18.611 18.415 19.4734 18.4684 19.8727C18.5836 20.7342 18.1905 20.6286 17.7328 20.4994C17.0709 20.3117 16.6737 20.523 16.5407 21.165C16.3713 21.9843 15.4506 21.8492 15.0393 22.4262C14.6358 22.9916 14.0042 23.3913 14.0593 24.2371C12.9223 24.1008 13.4479 23.0993 12.9968 22.4913C12.8361 24.4774 11.3686 24.443 10.0394 24.5908C9.59789 24.6405 9.09754 24.4707 8.70984 24.6215C7.89635 24.9371 7.95558 24.5436 8.16144 23.8018C7.70789 24.6857 7.28913 24.9868 6.65085 24.252C6.41931 23.9857 6.03617 24.0263 5.70813 23.953C5.10422 23.8175 5.03049 23.6767 5.04665 22.8992C5.0512 22.6801 4.91245 22.7025 4.77783 22.6408C3.39233 22.0062 2.79049 20.8461 2.78014 19.3263C2.77517 18.6027 3.07091 17.4492 1.64274 17.5246C1.446 17.5345 1.40665 17.385 1.34327 17.2504C0.031914 14.4599 0.458955 11.7767 1.93393 9.20949C2.61487 8.02487 4.35742 7.43546 5.68203 7.90102C6.11529 8.05345 6.58043 8.46599 6.76434 8.87854C6.94742 9.28818 6.48683 9.45179 6.06683 9.50564C5.74002 9.54747 5.84109 9.82789 5.91067 10.0429C6.02748 10.4028 6.27061 10.496 6.6144 10.3688C7.45109 10.0586 7.63955 10.1974 7.54138 11.189C7.46972 11.9155 8.50481 12.2046 9.08428 12.5981C9.47694 12.8648 9.68612 12.2932 9.80168 11.9648C9.88576 11.7278 10.0154 11.5506 10.2051 11.454C12.0379 10.515 12.2397 8.71741 12.5238 6.99268C12.6572 6.18374 12.6775 5.31185 12.834 4.54682C12.9927 3.77102 13.2383 2.95795 13.4408 2.15812C13.766 0.876171 14.8218 0.835165 15.8337 0.892325C16.4877 0.929189 17.1351 1.15451 17.7738 1.33759C17.9283 1.38191 18.1598 1.60558 18.1458 1.72156C18.0232 2.73014 19.2045 3.45043 18.7203 4.58286C18.5981 4.86866 18.9895 5.4386 19.2446 5.80931C19.7301 6.51262 19.7483 6.53499 18.8532 6.83156Z" fill="black"/>
</svg>
