<svg width="19" height="22" viewBox="0 0 19 22" fill="none" xmlns="http://www.w3.org/2000/svg">
<path fill-rule="evenodd" clip-rule="evenodd" d="M14.7468 17.8495C13.8302 18.2641 13.1849 18.7334 12.8001 19.5017C13.4289 19.0142 14.4809 19.0142 14.7468 17.8495ZM11.1706 4.22517C12.0231 4.06653 12.4393 3.55955 12.9177 3.1702C13.8451 2.4147 14.6031 2.65576 14.8777 3.87144C14.997 4.39872 15.0264 4.69239 15.7434 4.8386C16.4509 4.98316 16.6091 5.99381 16.9301 6.65115C17.9196 8.67908 18.2999 10.8582 18.1715 13.0982C18.0004 16.0862 16.5138 18.3275 14.0692 19.9938C12.9488 20.7576 11.7969 21.2074 10.3845 21.0413C9.71223 20.9622 9.32495 20.5331 8.80678 20.2755C7.02489 19.3907 5.18459 18.6245 3.52116 17.4982C1.7314 16.2871 -0.35162 11.7512 0.521102 9.34636C1.08027 7.80511 2.02341 6.87606 3.58992 6.55008C4.49081 6.36245 4.90294 6.73647 4.96879 7.83866C5.45341 7.49819 5.68785 7.10263 5.82163 6.57286C6.1356 5.33233 6.59702 4.14565 7.18021 2.99831C7.87193 1.636 9.02092 0.970793 10.4354 0.637361C10.9909 0.506473 11.5447 0.575645 11.8822 1.01925C12.2103 1.45002 12.1821 1.97067 11.8843 2.49174C11.6093 2.97263 11.4531 3.52144 11.1706 4.22517Z" fill="black"/>
</svg>
