<svg width="22" height="23" viewBox="0 0 22 23" fill="none" xmlns="http://www.w3.org/2000/svg">
<path fill-rule="evenodd" clip-rule="evenodd" d="M15.2577 15.267C15.0108 15.6319 15.1665 15.9558 15.5343 15.9922C16.1122 16.049 15.7539 15.6194 15.7733 15.3746C15.8011 15.0255 15.9643 15.2471 16.1378 15.2794C16.5193 15.3506 16.4883 14.9957 16.3321 14.8933C16.0728 14.7227 15.7141 14.5827 15.4188 14.6171C15.0709 14.6568 15.1653 14.9994 15.2577 15.267ZM13.8084 19.8372C12.9261 19.5643 11.92 20.6251 11.3807 19.2454C11.3783 19.8418 11.0283 20.7249 11.7216 20.6897C12.3549 20.6574 13.3076 20.712 13.8084 19.8372ZM19.1242 16.6235C19.7783 17.0128 19.9083 16.2072 20.5992 16.2412C19.6635 16.9706 19.1271 17.7662 18.763 18.7661C18.5224 19.4268 17.5196 19.8294 16.8801 20.1425C14.614 21.2522 12.1723 21.9911 9.61458 22.0632C8.84044 22.0851 8.09322 21.5997 7.28015 21.5438C7.02831 21.5268 6.79139 21.3217 6.8092 21.0053C6.81334 20.9262 6.95293 20.7816 7.0105 20.7907C7.47813 20.8657 7.80618 20.8268 7.57547 20.2241C7.47234 19.9549 7.51003 19.5821 7.15133 19.4815C6.52133 19.3046 7.01589 20.1988 6.53086 20.1574C6.06778 20.5501 6.67251 18.6195 5.83293 19.8546C5.77991 19.8128 5.7008 19.7809 5.67802 19.7262C5.17932 18.5238 4.00961 17.8545 3.35932 16.7283C2.73967 15.6555 1.94399 14.685 1.47636 13.5062C0.0701466 9.96601 -0.37512 6.32186 0.329437 2.57583C0.69559 0.627426 1.9324 -0.166183 3.71677 0.180503C4.32772 0.298965 4.80032 0.604645 5.04346 1.12571C5.96257 3.09648 7.34932 4.93139 6.62902 7.36441C6.40618 8.11701 6.83364 8.92139 7.3692 9.53648C7.70015 9.9163 8.10441 10.1425 8.66358 9.85707C9.73305 9.31115 10.7959 8.78843 11.5522 7.79021C12.0923 7.07737 12.736 6.44281 13.3113 5.75524C14.1058 4.80547 14.3228 3.59973 14.4114 2.4582C14.5469 0.717722 15.6677 -0.098254 17.2926 0.635296C17.9533 0.933521 18.5965 1.37879 18.8749 2.03033C19.6117 3.75257 20.4493 5.40814 20.8469 7.30559C21.2354 9.15914 21.346 10.9593 21.2516 12.8116C21.2106 13.6176 20.6932 14.3193 20.7649 15.163C20.7781 15.3191 20.4165 15.6418 20.2111 15.6571C19.5459 15.7068 19.5049 16.2987 19.1242 16.6235Z" fill="black"/>
</svg>
