<svg width="189" height="186" viewBox="0 0 189 186" fill="none" xmlns="http://www.w3.org/2000/svg">
<path d="M4.58371 15.0381C26.3835 -1.08971 59.0363 -4.52464 83.5884 7.0506C106.563 17.8821 102.976 53.9782 122.255 70.5147C138.546 84.489 169.382 73.472 181.595 91.1177C193.775 108.717 186.407 133.343 179.819 153.687C173.26 173.938 160.516 190.902 144.673 205.122C127.314 220.702 108.222 234.896 85.1828 238.626C59.5648 242.773 32.1698 240.61 10.1192 226.903C-12.7132 212.709 -29.3054 189.238 -36.0879 163.24C-42.6225 138.192 -32.919 113.129 -26.0718 88.1787C-18.8999 62.0452 -17.2046 31.1573 4.58371 15.0381Z" fill="#FDBC64"/>
</svg>
